{
  "accessors": [
    {
      "bufferView": 2,
      "componentType": 5126,
      "count": 2084,
      "max": [
        0.79870277643203735,
        0.94891297817230225,
        0.65662318468093872
      ],
      "min": [
        -0.79870277643203735,
        -1.5071693658828735,
        -1.1096237897872925
      ],
      "type": "VEC3"
    },
    {
      "bufferView": 2,
      "byteOffset": 25008,
      "componentType": 5126,
      "count": 2084,
      "max": [
        0.99997079372406006,
        0.99999630451202393,
        0.99956536293029785
      ],
      "min": [
        -0.99997079372406006,
        -1,
        -0.99999451637268066
      ],
      "type": "VEC3"
    },
    {
      "bufferView": 1,
      "componentType": 5126,
      "count": 2084,
      "max": [
        0.75520867109298706,
        0.88020861148834229
      ],
      "min": [
        0.24479174613952637,
        0.36979174613952637
      ],
      "type": "VEC2"
    },
    {
      "bufferView": 0,
      "componentType": 5125,
      "count": 7392,
      "max": [
        2083
      ],
      "min": [
        0
      ],
      "type": "SCALAR"
    },
    {
      "bufferView": 2,
      "byteOffset": 50016,
      "componentType": 5126,
      "count": 254,
      "max": [
        0.49593698978424072,
        0.57377427816390991,
        0.73538178205490112
      ],
      "min": [
        -0.4959370493888855,
        -0.062443919479846954,
        0.2690330445766449
      ],
      "type": "VEC3"
    },
    {
      "bufferView": 2,
      "byteOffset": 53064,
      "componentType": 5126,
      "count": 254,
      "max": [
        0.94594103097915649,
        0.99923908710479736,
        0.99582517147064209
      ],
      "min": [
        -0.94594103097915649,
        -0.76392638683319092,
        -0.09247279167175293
      ],
      "type": "VEC3"
    },
    {
      "bufferView": 1,
      "byteOffset": 16672,
      "componentType": 5126,
      "count": 254,
      "max": [
        0.58970451354980469,
        0.87811082601547241
      ],
      "min": [
        0.47608655691146851,
        0.75541526079177856
      ],
      "type": "VEC2"
    },
    {
      "bufferView": 0,
      "byteOffset": 29568,
      "componentType": 5125,
      "count": 768,
      "max": [
        253
      ],
      "min": [
        0
      ],
      "type": "SCALAR"
    },
    {
      "bufferView": 2,
      "byteOffset": 56112,
      "componentType": 5126,
      "count": 399,
      "max": [
        0.53140312433242798,
        0.58189994096755981,
        0.60745006799697876
      ],
      "min": [
        -0.53140312433242798,
        -0.097708910703659058,
        0.23107790946960449
      ],
      "type": "VEC3"
    },
    {
      "bufferView": 2,
      "byteOffset": 60900,
      "componentType": 5126,
      "count": 399,
      "max": [
        0.98893249034881592,
        0.94525396823883057,
        0.99751186370849609
      ],
      "min": [
        -0.98893249034881592,
        -0.87595933675765991,
        -0.37413051724433899
      ],
      "type": "VEC3"
    },
    {
      "bufferView": 1,
      "byteOffset": 18704,
      "componentType": 5126,
      "count": 399,
      "max": [
        0.5852888822555542,
        0.8693002462387085
      ],
      "min": [
        0.47639250755310059,
        0.75541526079177856
      ],
      "type": "VEC2"
    },
    {
      "bufferView": 0,
      "byteOffset": 32640,
      "componentType": 5125,
      "count": 864,
      "max": [
        398
      ],
      "min": [
        0
      ],
      "type": "SCALAR"
    }
  ],
  "asset": {
    "extras": {
      "author": "joshfacunla (https://sketchfab.com/joshuafacunla19)",
      "license": "CC-BY-4.0 (http://creativecommons.org/licenses/by/4.0/)",
      "source": "https://sketchfab.com/3d-models/among-us-crewmate-021671fa658d4d0dbb7bd5102b59c1d0",
      "title": "Among Us Crewmate"
    },
    "generator": "Sketchfab-9.94.0",
    "version": "2.0"
  },
  "bufferViews": [
    {
      "buffer": 0,
      "byteLength": 36096,
      "byteOffset": 0,
      "name": "floatBufferViews",
      "target": 34963
    },
    {
      "buffer": 0,
      "byteLength": 21896,
      "byteOffset": 36096,
      "byteStride": 8,
      "name": "floatBufferViews",
      "target": 34962
    },
    {
      "buffer": 0,
      "byteLength": 65688,
      "byteOffset": 57992,
      "byteStride": 12,
      "name": "floatBufferViews",
      "target": 34962
    }
  ],
  "buffers": [
    {
      "byteLength": 123680,
      "uri": "scene.bin"
    }
  ],
  "materials": [
    {
      "doubleSided": true,
      "name": "Material",
      "pbrMetallicRoughness": {
        "baseColorFactor": [
          0.953780560000000001,
          0.09999999999999993,
          0.62714499999999997,
          1
        ],
        "metallicFactor": 0,
        "roughnessFactor": 0.40000000000000002
      }
    },
    {
      "doubleSided": true,
      "emissiveFactor": [
        0,
        0,
        0
      ],
      "name": "Material.001",
      "pbrMetallicRoughness": {
        "baseColorFactor": [
          0.80000000000000004,
          0.80000000000000004,
          0.80000000000000004,
          1
        ],
        "metallicFactor": 1,
        "roughnessFactor": 0
      }
    },
    {
      "doubleSided": true,
      "emissiveFactor": [
        0,
        0,
        0
      ],
      "name": "Material.002",
      "pbrMetallicRoughness": {
        "baseColorFactor": [
          0.0036421299999999999,
          0.0036421299999999999,
          0.0036421299999999999,
          1
        ],
        "metallicFactor": 0,
        "roughnessFactor": 1
      }
    }
  ],
  "meshes": [
    {
      "primitives": [
        {
          "attributes": {
            "NORMAL": 1,
            "POSITION": 0,
            "TEXCOORD_0": 2
          },
          "indices": 3,
          "material": 0,
          "mode": 4
        }
      ]
    },
    {
      "primitives": [
        {
          "attributes": {
            "NORMAL": 5,
            "POSITION": 4,
            "TEXCOORD_0": 6
          },
          "indices": 7,
          "material": 1,
          "mode": 4
        }
      ]
    },
    {
      "primitives": [
        {
          "attributes": {
            "NORMAL": 9,
            "POSITION": 8,
            "TEXCOORD_0": 10
          },
          "indices": 11,
          "material": 2,
          "mode": 4
        }
      ]
    }
  ],
  "nodes": [
    {
      "children": [
        1
      ],
      "name": "RootNode (gltf orientation matrix)",
      "rotation": [
        -0.70710678118654746,
        -0,
        -0,
        0.70710678118654757
      ]
    },
    {
      "children": [
        2
      ],
      "matrix": [
        1,
        0,
        0,
        0,
        0,
        1,
        0,
        0,
        0,
        0,
        1,
        0,
        0,
        -1.1102230246251565e-16,
        0,
        1
      ],
      "name": "RootNode (model correction matrix)"
    },
    {
      "children": [
        3
      ],
      "name": "root"
    },
    {
      "children": [
        4
      ],
      "matrix": [
        1,
        0,
        0,
        0,
        0,
        2.2204460492503131e-16,
        1,
        0,
        0,
        -1,
        2.2204460492503131e-16,
        0,
        0,
        0,
        0,
        1
      ],
      "name": "GLTF_SceneRootNode"
    },
    {
      "children": [
        5,
        6,
        7
      ],
      "matrix": [
        1,
        0,
        0,
        0,
        0,
        1,
        0,
        0,
        0,
        0,
        1,
        0,
        0,
        1.4813123941421509,
        0,
        1
      ],
      "name": "Cube_0"
    },
    {
      "mesh": 0,
      "name": ""
    },
    {
      "mesh": 1,
      "name": ""
    },
    {
      "mesh": 2,
      "name": ""
    }
  ],
  "scene": 0,
  "scenes": [
    {
      "name": "OSG_Scene",
      "nodes": [
        0
      ]
    }
  ]
}

